<svg width="259" height="27" viewBox="0 0 259 27" xmlns="http://www.w3.org/2000/svg" fill="#7A232E">
    <path d="M28.6015 0V3.24519H5.27992V11.0383H21.7537V14.2662H5.27992V26.2613H0V0H28.6015Z"/>
    <path d="M94.609 14.8775H106.057L114.968 26.2616H120.847L111.469 14.6296C114.605 14.2953 116.853 13.5229 118.213 12.2836C118.899 11.6528 119.438 10.8796 119.794 10.0183C120.149 9.15708 120.312 8.22852 120.271 7.29769C120.318 6.24043 120.096 5.18847 119.625 4.24067C119.154 3.29287 118.45 2.48034 117.579 1.87944C115.798 0.640155 112.847 0.00610352 108.714 0.00610352H89.3291V26.2616H94.609V14.8775ZM94.609 11.517V3.36081H107.913C109.102 3.34222 110.292 3.41932 111.469 3.59138C112.245 3.69 112.997 3.92824 113.688 4.2946C114.181 4.55289 114.583 4.95499 114.841 5.44742C115.065 5.9955 115.171 6.58476 115.152 7.17665C115.174 7.79355 115.042 8.40614 114.768 8.95945C114.494 9.51276 114.088 9.9895 113.584 10.3469C112.541 11.1193 110.76 11.4997 108.253 11.4997L94.609 11.517Z"/>
    <path d="M199.867 21.477L187.802 0H182.488L197.29 26.2613H202.253L216.456 0H211.314L199.867 21.477Z"/>
    <path d="M243.049 0H237.706L222.996 26.2613H227.953L231.705 19.304H249.349L253.465 26.2613H258.877L243.049 0ZM233.694 16.0761L240.167 4.30002L247.199 16.0761H233.694Z"/>
    <path d="M56.4137 0H51.0703L36.3604 26.2613H41.3636L45.0699 19.304H62.7138L66.8352 26.2613H72.2419L56.4137 0ZM47.0701 16.0761L53.5431 4.30002L60.5984 16.0761H47.0701Z"/>
    <path d="M161.488 11.2804V14.6696L145.516 14.514V23.0218H168.152V26.2613H140.23V0H168.152V3.24519H145.516V11.2804H161.488Z"/>
</svg>
